<mxfile host="app.diagrams.net" modified="2023-06-14T10:20:54.576Z" agent="Mozilla/5.0 (Macintosh; Intel Mac OS X 10_15_7) AppleWebKit/537.36 (KHTML, like Gecko) Chrome/114.0.0.0 Safari/537.36" etag="Kha5ZSunOK69hPkbLpZH" version="21.3.8" type="github">
  <diagram name="第 1 页" id="9cabwEs5hQHyQ-33GDOA">
    <mxGraphModel dx="2261" dy="773" grid="1" gridSize="10" guides="1" tooltips="1" connect="1" arrows="1" fold="1" page="1" pageScale="1" pageWidth="827" pageHeight="1169" math="0" shadow="0">
      <root>
        <mxCell id="0" />
        <mxCell id="1" parent="0" />
        <mxCell id="f5wJrhD5sAVsTX6MP2s8-1" value="Openresty" style="shape=umlLifeline;perimeter=lifelinePerimeter;whiteSpace=wrap;html=1;container=1;dropTarget=0;collapsible=0;recursiveResize=0;outlineConnect=0;portConstraint=eastwest;newEdgeStyle={&quot;edgeStyle&quot;:&quot;elbowEdgeStyle&quot;,&quot;elbow&quot;:&quot;vertical&quot;,&quot;curved&quot;:0,&quot;rounded&quot;:0};" vertex="1" parent="1">
          <mxGeometry x="-653" y="1200" width="100" height="670" as="geometry" />
        </mxCell>
        <mxCell id="f5wJrhD5sAVsTX6MP2s8-2" value="" style="html=1;points=[];perimeter=orthogonalPerimeter;outlineConnect=0;targetShapes=umlLifeline;portConstraint=eastwest;newEdgeStyle={&quot;edgeStyle&quot;:&quot;elbowEdgeStyle&quot;,&quot;elbow&quot;:&quot;vertical&quot;,&quot;curved&quot;:0,&quot;rounded&quot;:0};" vertex="1" parent="f5wJrhD5sAVsTX6MP2s8-1">
          <mxGeometry x="45" y="66" width="10" height="24" as="geometry" />
        </mxCell>
        <mxCell id="f5wJrhD5sAVsTX6MP2s8-3" value="" style="html=1;points=[];perimeter=orthogonalPerimeter;outlineConnect=0;targetShapes=umlLifeline;portConstraint=eastwest;newEdgeStyle={&quot;edgeStyle&quot;:&quot;elbowEdgeStyle&quot;,&quot;elbow&quot;:&quot;vertical&quot;,&quot;curved&quot;:0,&quot;rounded&quot;:0};" vertex="1" parent="f5wJrhD5sAVsTX6MP2s8-1">
          <mxGeometry x="45" y="120" width="10" height="30" as="geometry" />
        </mxCell>
        <mxCell id="f5wJrhD5sAVsTX6MP2s8-4" value="self call" style="html=1;align=left;spacingLeft=2;endArrow=block;rounded=0;edgeStyle=orthogonalEdgeStyle;curved=0;rounded=0;" edge="1" parent="f5wJrhD5sAVsTX6MP2s8-1" target="f5wJrhD5sAVsTX6MP2s8-3">
          <mxGeometry relative="1" as="geometry">
            <mxPoint x="50" y="100" as="sourcePoint" />
            <Array as="points">
              <mxPoint x="80" y="130" />
            </Array>
          </mxGeometry>
        </mxCell>
        <mxCell id="f5wJrhD5sAVsTX6MP2s8-5" value="" style="html=1;points=[];perimeter=orthogonalPerimeter;outlineConnect=0;targetShapes=umlLifeline;portConstraint=eastwest;newEdgeStyle={&quot;edgeStyle&quot;:&quot;elbowEdgeStyle&quot;,&quot;elbow&quot;:&quot;vertical&quot;,&quot;curved&quot;:0,&quot;rounded&quot;:0};" vertex="1" parent="f5wJrhD5sAVsTX6MP2s8-1">
          <mxGeometry x="45" y="180" width="10" height="170" as="geometry" />
        </mxCell>
        <mxCell id="f5wJrhD5sAVsTX6MP2s8-6" value="" style="html=1;points=[];perimeter=orthogonalPerimeter;outlineConnect=0;targetShapes=umlLifeline;portConstraint=eastwest;newEdgeStyle={&quot;edgeStyle&quot;:&quot;elbowEdgeStyle&quot;,&quot;elbow&quot;:&quot;vertical&quot;,&quot;curved&quot;:0,&quot;rounded&quot;:0};" vertex="1" parent="f5wJrhD5sAVsTX6MP2s8-1">
          <mxGeometry x="45" y="390" width="10" height="110" as="geometry" />
        </mxCell>
        <mxCell id="f5wJrhD5sAVsTX6MP2s8-7" value="Load front resource" style="html=1;align=left;spacingLeft=2;endArrow=block;rounded=0;edgeStyle=orthogonalEdgeStyle;curved=0;rounded=0;" edge="1" parent="f5wJrhD5sAVsTX6MP2s8-1" target="f5wJrhD5sAVsTX6MP2s8-6">
          <mxGeometry relative="1" as="geometry">
            <mxPoint x="50" y="370" as="sourcePoint" />
            <Array as="points">
              <mxPoint x="80" y="400" />
            </Array>
          </mxGeometry>
        </mxCell>
        <mxCell id="f5wJrhD5sAVsTX6MP2s8-8" value="" style="html=1;points=[];perimeter=orthogonalPerimeter;outlineConnect=0;targetShapes=umlLifeline;portConstraint=eastwest;newEdgeStyle={&quot;edgeStyle&quot;:&quot;elbowEdgeStyle&quot;,&quot;elbow&quot;:&quot;vertical&quot;,&quot;curved&quot;:0,&quot;rounded&quot;:0};" vertex="1" parent="f5wJrhD5sAVsTX6MP2s8-1">
          <mxGeometry x="45" y="550" width="10" height="40" as="geometry" />
        </mxCell>
        <mxCell id="f5wJrhD5sAVsTX6MP2s8-9" value="unzip resource zip &amp;amp; deploy" style="html=1;align=left;spacingLeft=2;endArrow=block;rounded=0;edgeStyle=orthogonalEdgeStyle;curved=0;rounded=0;" edge="1" parent="f5wJrhD5sAVsTX6MP2s8-1" target="f5wJrhD5sAVsTX6MP2s8-8">
          <mxGeometry relative="1" as="geometry">
            <mxPoint x="50" y="530" as="sourcePoint" />
            <Array as="points">
              <mxPoint x="80" y="560" />
            </Array>
          </mxGeometry>
        </mxCell>
        <mxCell id="f5wJrhD5sAVsTX6MP2s8-10" value="" style="html=1;verticalAlign=bottom;startArrow=oval;endArrow=block;startSize=8;edgeStyle=elbowEdgeStyle;elbow=vertical;curved=0;rounded=0;" edge="1" parent="1" source="f5wJrhD5sAVsTX6MP2s8-19" target="f5wJrhD5sAVsTX6MP2s8-2">
          <mxGeometry relative="1" as="geometry">
            <mxPoint x="-765" y="1285.5" as="sourcePoint" />
            <Array as="points">
              <mxPoint x="-623" y="1270" />
              <mxPoint x="-773" y="1286" />
            </Array>
          </mxGeometry>
        </mxCell>
        <mxCell id="f5wJrhD5sAVsTX6MP2s8-11" value="Biz Admin&amp;nbsp;" style="edgeLabel;html=1;align=center;verticalAlign=middle;resizable=0;points=[];" vertex="1" connectable="0" parent="f5wJrhD5sAVsTX6MP2s8-10">
          <mxGeometry x="-0.0032" y="1" relative="1" as="geometry">
            <mxPoint x="7" y="-5" as="offset" />
          </mxGeometry>
        </mxCell>
        <mxCell id="f5wJrhD5sAVsTX6MP2s8-12" value="Leap" style="shape=umlLifeline;perimeter=lifelinePerimeter;whiteSpace=wrap;html=1;container=1;dropTarget=0;collapsible=0;recursiveResize=0;outlineConnect=0;portConstraint=eastwest;newEdgeStyle={&quot;edgeStyle&quot;:&quot;elbowEdgeStyle&quot;,&quot;elbow&quot;:&quot;vertical&quot;,&quot;curved&quot;:0,&quot;rounded&quot;:0};" vertex="1" parent="1">
          <mxGeometry x="-443" y="1200" width="100" height="670" as="geometry" />
        </mxCell>
        <mxCell id="f5wJrhD5sAVsTX6MP2s8-13" value="" style="html=1;points=[];perimeter=orthogonalPerimeter;outlineConnect=0;targetShapes=umlLifeline;portConstraint=eastwest;newEdgeStyle={&quot;edgeStyle&quot;:&quot;elbowEdgeStyle&quot;,&quot;elbow&quot;:&quot;vertical&quot;,&quot;curved&quot;:0,&quot;rounded&quot;:0};" vertex="1" parent="f5wJrhD5sAVsTX6MP2s8-12">
          <mxGeometry x="45" y="300" width="10" height="40" as="geometry" />
        </mxCell>
        <mxCell id="f5wJrhD5sAVsTX6MP2s8-14" value="Load Biz Context" style="html=1;align=left;spacingLeft=2;endArrow=block;rounded=0;edgeStyle=orthogonalEdgeStyle;curved=0;rounded=0;" edge="1" parent="f5wJrhD5sAVsTX6MP2s8-12" target="f5wJrhD5sAVsTX6MP2s8-13">
          <mxGeometry relative="1" as="geometry">
            <mxPoint x="50" y="270" as="sourcePoint" />
            <Array as="points">
              <mxPoint x="80" y="270" />
              <mxPoint x="80" y="310" />
            </Array>
          </mxGeometry>
        </mxCell>
        <mxCell id="f5wJrhD5sAVsTX6MP2s8-15" value="" style="html=1;points=[];perimeter=orthogonalPerimeter;outlineConnect=0;targetShapes=umlLifeline;portConstraint=eastwest;newEdgeStyle={&quot;edgeStyle&quot;:&quot;elbowEdgeStyle&quot;,&quot;elbow&quot;:&quot;vertical&quot;,&quot;curved&quot;:0,&quot;rounded&quot;:0};" vertex="1" parent="f5wJrhD5sAVsTX6MP2s8-12">
          <mxGeometry x="45" y="195" width="10" height="50" as="geometry" />
        </mxCell>
        <mxCell id="f5wJrhD5sAVsTX6MP2s8-16" value="" style="html=1;points=[];perimeter=orthogonalPerimeter;outlineConnect=0;targetShapes=umlLifeline;portConstraint=eastwest;newEdgeStyle={&quot;edgeStyle&quot;:&quot;elbowEdgeStyle&quot;,&quot;elbow&quot;:&quot;vertical&quot;,&quot;curved&quot;:0,&quot;rounded&quot;:0};" vertex="1" parent="f5wJrhD5sAVsTX6MP2s8-12">
          <mxGeometry x="45" y="430" width="10" height="70" as="geometry" />
        </mxCell>
        <mxCell id="f5wJrhD5sAVsTX6MP2s8-17" value="File System" style="shape=umlLifeline;perimeter=lifelinePerimeter;whiteSpace=wrap;html=1;container=1;dropTarget=0;collapsible=0;recursiveResize=0;outlineConnect=0;portConstraint=eastwest;newEdgeStyle={&quot;edgeStyle&quot;:&quot;elbowEdgeStyle&quot;,&quot;elbow&quot;:&quot;vertical&quot;,&quot;curved&quot;:0,&quot;rounded&quot;:0};" vertex="1" parent="1">
          <mxGeometry x="-213" y="1200" width="100" height="660" as="geometry" />
        </mxCell>
        <mxCell id="f5wJrhD5sAVsTX6MP2s8-18" value="" style="html=1;points=[];perimeter=orthogonalPerimeter;outlineConnect=0;targetShapes=umlLifeline;portConstraint=eastwest;newEdgeStyle={&quot;edgeStyle&quot;:&quot;elbowEdgeStyle&quot;,&quot;elbow&quot;:&quot;vertical&quot;,&quot;curved&quot;:0,&quot;rounded&quot;:0};" vertex="1" parent="f5wJrhD5sAVsTX6MP2s8-17">
          <mxGeometry x="47" y="195" width="10" height="50" as="geometry" />
        </mxCell>
        <mxCell id="f5wJrhD5sAVsTX6MP2s8-19" value="" style="shape=umlLifeline;perimeter=lifelinePerimeter;whiteSpace=wrap;html=1;container=1;dropTarget=0;collapsible=0;recursiveResize=0;outlineConnect=0;portConstraint=eastwest;newEdgeStyle={&quot;edgeStyle&quot;:&quot;elbowEdgeStyle&quot;,&quot;elbow&quot;:&quot;vertical&quot;,&quot;curved&quot;:0,&quot;rounded&quot;:0};participant=umlActor;" vertex="1" parent="1">
          <mxGeometry x="-800" y="1200" width="20" height="670" as="geometry" />
        </mxCell>
        <mxCell id="f5wJrhD5sAVsTX6MP2s8-20" value="" style="html=1;points=[];perimeter=orthogonalPerimeter;outlineConnect=0;targetShapes=umlLifeline;portConstraint=eastwest;newEdgeStyle={&quot;edgeStyle&quot;:&quot;elbowEdgeStyle&quot;,&quot;elbow&quot;:&quot;vertical&quot;,&quot;curved&quot;:0,&quot;rounded&quot;:0};" vertex="1" parent="f5wJrhD5sAVsTX6MP2s8-19">
          <mxGeometry x="5" y="180" width="10" height="410" as="geometry" />
        </mxCell>
        <mxCell id="f5wJrhD5sAVsTX6MP2s8-21" style="edgeStyle=elbowEdgeStyle;rounded=0;orthogonalLoop=1;jettySize=auto;html=1;elbow=vertical;curved=0;" edge="1" parent="1" source="f5wJrhD5sAVsTX6MP2s8-15" target="f5wJrhD5sAVsTX6MP2s8-18">
          <mxGeometry relative="1" as="geometry">
            <mxPoint x="-153" y="1400" as="targetPoint" />
            <Array as="points">
              <mxPoint x="-233" y="1400" />
              <mxPoint x="-193" y="1380" />
              <mxPoint x="-333" y="1370" />
              <mxPoint x="-293" y="1360" />
            </Array>
          </mxGeometry>
        </mxCell>
        <mxCell id="f5wJrhD5sAVsTX6MP2s8-22" value="Load Biz Jar" style="edgeLabel;html=1;align=center;verticalAlign=middle;resizable=0;points=[];" vertex="1" connectable="0" parent="f5wJrhD5sAVsTX6MP2s8-21">
          <mxGeometry x="-0.02" y="1" relative="1" as="geometry">
            <mxPoint x="5" y="-9" as="offset" />
          </mxGeometry>
        </mxCell>
        <mxCell id="f5wJrhD5sAVsTX6MP2s8-23" value="" style="html=1;verticalAlign=bottom;endArrow=open;dashed=1;endSize=8;edgeStyle=elbowEdgeStyle;elbow=vertical;curved=0;rounded=0;" edge="1" parent="1" source="f5wJrhD5sAVsTX6MP2s8-18" target="f5wJrhD5sAVsTX6MP2s8-15">
          <mxGeometry relative="1" as="geometry">
            <mxPoint x="-173" y="1410" as="sourcePoint" />
            <mxPoint x="-243" y="1410" as="targetPoint" />
            <Array as="points">
              <mxPoint x="-253" y="1440" />
              <mxPoint x="-213" y="1430" />
              <mxPoint x="-273" y="1420" />
              <mxPoint x="-213" y="1400" />
              <mxPoint x="-273" y="1390" />
              <mxPoint x="-243" y="1410" />
            </Array>
          </mxGeometry>
        </mxCell>
        <mxCell id="f5wJrhD5sAVsTX6MP2s8-24" style="edgeStyle=elbowEdgeStyle;rounded=0;orthogonalLoop=1;jettySize=auto;html=1;elbow=vertical;curved=0;dashed=1;" edge="1" parent="1" source="f5wJrhD5sAVsTX6MP2s8-3" target="f5wJrhD5sAVsTX6MP2s8-19">
          <mxGeometry relative="1" as="geometry">
            <Array as="points">
              <mxPoint x="-633" y="1350" />
              <mxPoint x="-653" y="1370" />
              <mxPoint x="-693" y="1360" />
            </Array>
          </mxGeometry>
        </mxCell>
        <mxCell id="f5wJrhD5sAVsTX6MP2s8-25" value="response web page" style="edgeLabel;html=1;align=center;verticalAlign=middle;resizable=0;points=[];" vertex="1" connectable="0" parent="f5wJrhD5sAVsTX6MP2s8-24">
          <mxGeometry x="0.0521" y="-2" relative="1" as="geometry">
            <mxPoint as="offset" />
          </mxGeometry>
        </mxCell>
        <mxCell id="f5wJrhD5sAVsTX6MP2s8-26" style="edgeStyle=elbowEdgeStyle;rounded=0;orthogonalLoop=1;jettySize=auto;html=1;elbow=vertical;curved=0;" edge="1" parent="1" source="f5wJrhD5sAVsTX6MP2s8-20" target="f5wJrhD5sAVsTX6MP2s8-5">
          <mxGeometry relative="1" as="geometry">
            <Array as="points">
              <mxPoint x="-733" y="1380" />
            </Array>
          </mxGeometry>
        </mxCell>
        <mxCell id="f5wJrhD5sAVsTX6MP2s8-27" value="Load Biz" style="edgeLabel;html=1;align=center;verticalAlign=middle;resizable=0;points=[];" vertex="1" connectable="0" parent="f5wJrhD5sAVsTX6MP2s8-26">
          <mxGeometry x="0.1638" relative="1" as="geometry">
            <mxPoint as="offset" />
          </mxGeometry>
        </mxCell>
        <mxCell id="f5wJrhD5sAVsTX6MP2s8-28" style="edgeStyle=elbowEdgeStyle;rounded=0;orthogonalLoop=1;jettySize=auto;html=1;elbow=vertical;curved=0;" edge="1" parent="1" source="f5wJrhD5sAVsTX6MP2s8-5" target="f5wJrhD5sAVsTX6MP2s8-15">
          <mxGeometry relative="1" as="geometry">
            <Array as="points">
              <mxPoint x="-443" y="1400" />
              <mxPoint x="-443" y="1380" />
            </Array>
          </mxGeometry>
        </mxCell>
        <mxCell id="f5wJrhD5sAVsTX6MP2s8-29" style="edgeStyle=elbowEdgeStyle;rounded=0;orthogonalLoop=1;jettySize=auto;html=1;elbow=vertical;curved=0;dashed=1;" edge="1" parent="1" source="f5wJrhD5sAVsTX6MP2s8-13" target="f5wJrhD5sAVsTX6MP2s8-5">
          <mxGeometry relative="1" as="geometry">
            <Array as="points">
              <mxPoint x="-523" y="1540" />
            </Array>
          </mxGeometry>
        </mxCell>
        <mxCell id="f5wJrhD5sAVsTX6MP2s8-30" value="" style="shape=image;verticalLabelPosition=bottom;labelBackgroundColor=default;verticalAlign=top;aspect=fixed;imageAspect=0;image=https://www.sofastack.tech/projects/sofa-boot/sofa-ark-readme/architecture.png;" vertex="1" parent="1">
          <mxGeometry x="-790" y="700" width="655.51" height="440" as="geometry" />
        </mxCell>
        <mxCell id="f5wJrhD5sAVsTX6MP2s8-31" style="edgeStyle=elbowEdgeStyle;rounded=0;orthogonalLoop=1;jettySize=auto;html=1;elbow=vertical;curved=0;" edge="1" parent="1" source="f5wJrhD5sAVsTX6MP2s8-6" target="f5wJrhD5sAVsTX6MP2s8-16">
          <mxGeometry relative="1" as="geometry">
            <Array as="points">
              <mxPoint x="-423" y="1630" />
              <mxPoint x="-423" y="1620" />
              <mxPoint x="-443" y="1645" />
            </Array>
          </mxGeometry>
        </mxCell>
        <mxCell id="f5wJrhD5sAVsTX6MP2s8-32" value="get resource zip" style="edgeLabel;html=1;align=center;verticalAlign=middle;resizable=0;points=[];" vertex="1" connectable="0" parent="f5wJrhD5sAVsTX6MP2s8-31">
          <mxGeometry x="-0.5" y="-1" relative="1" as="geometry">
            <mxPoint x="45" y="-16" as="offset" />
          </mxGeometry>
        </mxCell>
        <mxCell id="f5wJrhD5sAVsTX6MP2s8-33" style="edgeStyle=elbowEdgeStyle;rounded=0;orthogonalLoop=1;jettySize=auto;html=1;elbow=vertical;curved=0;dashed=1;" edge="1" parent="1" source="f5wJrhD5sAVsTX6MP2s8-16" target="f5wJrhD5sAVsTX6MP2s8-1">
          <mxGeometry relative="1" as="geometry">
            <Array as="points">
              <mxPoint x="-503" y="1700" />
            </Array>
          </mxGeometry>
        </mxCell>
        <mxCell id="f5wJrhD5sAVsTX6MP2s8-34" style="edgeStyle=elbowEdgeStyle;rounded=0;orthogonalLoop=1;jettySize=auto;html=1;elbow=vertical;curved=0;dashed=1;" edge="1" parent="1" source="f5wJrhD5sAVsTX6MP2s8-8" target="f5wJrhD5sAVsTX6MP2s8-20">
          <mxGeometry relative="1" as="geometry">
            <Array as="points">
              <mxPoint x="-663" y="1790" />
            </Array>
          </mxGeometry>
        </mxCell>
      </root>
    </mxGraphModel>
  </diagram>
</mxfile>
